<?xml version="1.0" encoding="UTF-8"?>
<svg version="1.1" xmlns="http://www.w3.org/2000/svg" width="512" height="512">
<path d="M0 0 C3.99350351 1.99675176 6.75059677 4.34899827 9.9375 7.375 C11.10145492 8.46495864 12.26552053 9.5547991 13.4296875 10.64453125 C14.31865723 11.48105225 14.31865723 11.48105225 15.22558594 12.33447266 C17.98853583 14.92787444 20.77563071 17.4948605 23.5625 20.0625 C24.10060303 20.55927246 24.63870605 21.05604492 25.19311523 21.56787109 C29.27982977 25.34050665 33.3785706 29.09986852 37.48071289 32.85571289 C41.16227522 36.2280119 44.83305401 39.61181813 48.5 43 C54.65148993 48.68329269 60.82278816 54.34469121 67 60 C73.72764865 66.15924005 80.44495753 72.32924584 87.14428711 78.51928711 C90.75526569 81.85452802 94.37447164 85.18058485 98 88.5 C102.72642945 92.82736416 107.43790065 97.1706493 112.14453125 101.51953125 C115.75544582 104.85467191 119.37455646 108.18066251 123 111.5 C127.17593852 115.32335268 131.34152772 119.15765805 135.5 123 C141.65148993 128.68329269 147.82278816 134.34469121 154 140 C160.72764865 146.15924005 167.44495753 152.32924584 174.14428711 158.51928711 C177.75526569 161.85452802 181.37447164 165.18058485 185 168.5 C189.72642945 172.82736416 194.43790065 177.1706493 199.14453125 181.51953125 C202.75544582 184.85467191 206.37455646 188.18066251 210 191.5 C214.17593852 195.32335268 218.34152772 199.15765805 222.5 203 C228.65148993 208.68329269 234.82278816 214.34469121 241 220 C247.72764865 226.15924005 254.44495753 232.32924584 261.14428711 238.51928711 C264.75526569 241.85452802 268.37447164 245.18058485 272 248.5 C276.72642945 252.82736416 281.43790065 257.1706493 286.14453125 261.51953125 C289.75544582 264.85467191 293.37455646 268.18066251 297 271.5 C301.17593852 275.32335268 305.34152772 279.15765805 309.5 283 C314.66183213 287.76895893 319.83582283 292.52436525 325.01953125 297.26953125 C327.06143328 299.13885919 329.10013497 301.01159841 331.13671875 302.88671875 C332.17444268 303.8411855 333.2122026 304.79561313 334.25 305.75 C334.74669189 306.20761719 335.24338379 306.66523438 335.75512695 307.13671875 C339.31635868 310.40627995 342.95440941 313.56982409 346.671875 316.66015625 C348 318 348 318 348 320 C339.97952349 320.56762099 331.95861037 321.12891135 323.9375 321.6875 C322.68923431 321.77448151 321.44096863 321.86146301 320.15487671 321.95108032 C303.04170001 323.13982704 285.92548102 324.27010819 268.8046875 325.34375 C267.91202494 325.39979715 267.01936237 325.45584431 266.09964943 325.51358986 C257.18730748 326.07292906 248.27477142 326.62894333 239.36172867 327.17700768 C236.00900438 327.38364959 232.65641642 327.592447 229.30385208 327.80166626 C227.73743694 327.89885784 226.1709578 327.99502419 224.60441208 328.09008789 C222.44484908 328.22117235 220.28552518 328.35569979 218.1262207 328.4909668 C216.91327835 328.56550583 215.700336 328.64004486 214.45063782 328.71684265 C210.93828781 329.00506407 207.48277151 329.46618972 204 330 C204.45101074 331.02730225 204.90202148 332.05460449 205.36669922 333.11303711 C224.32910156 376.30517577 224.32910156 376.30517577 225.45640564 378.87294006 C226.19870957 380.56373273 226.9410293 382.25451846 227.68336487 383.94529724 C229.52975994 388.15078718 231.37587675 392.35639885 233.22143555 396.56225586 C236.69499656 404.47741326 240.1710856 412.3914292 243.65646362 420.3013916 C245.2782658 423.98245973 246.89858343 427.6641805 248.51879883 431.34594727 C249.28173477 433.07853063 250.04537486 434.81080415 250.80981445 436.54272461 C255.70367014 447.63086283 260.43937151 458.77051949 265 470 C248.67287455 477.72061472 232.13303782 484.95598408 215.59843445 492.21853638 C209.98015546 494.68644881 204.36716477 497.16582684 198.75872803 499.65602112 C195.33970773 501.17144125 191.91647062 502.67713886 188.49200439 504.1802063 C186.87936137 504.89030806 185.26845543 505.60436858 183.65936279 506.32247925 C181.43501464 507.31428779 179.20485055 508.29163183 176.97265625 509.265625 C176.3204863 509.56044266 175.66831635 509.85526031 174.99638367 510.15901184 C172.57056864 511.20365654 170.42839522 511.98094871 167.77661133 512.09887695 C164.82086 510.27067347 163.89450143 507.24165594 162.6015625 504.15234375 C162.29045532 503.44242279 161.97934814 502.73250183 161.65881348 502.00106812 C160.6334778 499.65238202 159.62942698 497.29519455 158.625 494.9375 C157.90880526 493.28673848 157.19117612 491.6365986 156.47216797 489.98706055 C155.00364067 486.61217842 153.54322529 483.23397085 152.08984375 479.85253906 C150.23404345 475.53697603 148.3579297 471.23072906 146.46875 466.9296875 C145.90917706 465.65535597 145.34960674 464.38102329 144.79003906 463.10668945 C144.37824402 462.16897202 144.37824402 462.16897202 143.95812988 461.21231079 C142.53527502 457.96773264 141.11973735 454.71996344 139.703125 451.47265625 C136.99497642 445.26745834 134.2736022 439.06814856 131.546875 432.87109375 C122.93209431 413.28891786 114.36837324 393.68896434 106 374 C103.92675739 373.7785036 103.92675739 373.7785036 102.5546875 375.28515625 C102.00039062 375.87167969 101.44609375 376.45820313 100.875 377.0625 C98.50221979 379.50791634 96.10765094 381.80797902 93.5 384 C88.6136829 388.19917876 84.13855 392.80906499 79.63085938 397.40625 C76.5260223 400.55370891 73.38188423 403.5827545 70.03125 406.46875 C65.8076119 410.11066491 61.90341837 414.02034299 58 418 C53.47021287 422.61825953 48.87040516 427.0319728 43.96875 431.25390625 C40.66244449 434.18628435 37.59281885 437.34584132 34.5 440.5 C26.69847328 448.38549618 26.69847328 448.38549618 23 451.5 C20.32623463 453.79323597 17.7938486 456.16067778 15.328125 458.67578125 C14.65910156 459.35253906 13.99007812 460.02929688 13.30078125 460.7265625 C11.9548474 462.0955695 10.61353084 463.46913452 9.27734375 464.84765625 C8.65472656 465.481875 8.03210938 466.11609375 7.390625 466.76953125 C6.83407227 467.34292236 6.27751953 467.91631348 5.70410156 468.50708008 C4 470 4 470 0 472 C0 316.24 0 160.48 0 0 Z M31 70 C31 178.57 31 287.14 31 399 C34.93606198 396.63836281 37.26976637 394.96284809 40.36328125 391.796875 C41.57081055 390.57291016 41.57081055 390.57291016 42.80273438 389.32421875 C43.63095703 388.47472656 44.45917969 387.62523437 45.3125 386.75 C50.42436866 381.52919649 55.54192773 376.44075278 61.09057617 371.68457031 C64.3829753 368.7798837 67.42742756 365.63351072 70.5 362.5 C74.79952536 358.15419795 79.1033108 353.93931722 83.78125 350 C87.15013424 346.96325927 90.30890787 343.72171607 93.5 340.5 C98.50553195 335.45095767 103.55117326 330.57220162 109 326 C110.24093606 324.94038424 111.48053847 323.87920448 112.71875 322.81640625 C113.33685547 322.2860376 113.95496094 321.75566895 114.59179688 321.20922852 C115.28885742 320.6106604 115.28885742 320.6106604 116 320 C123.41633337 336.28941654 130.74536885 352.60816333 137.83203125 369.04418945 C142.40723419 379.65274693 147.03904255 390.23584883 151.6875 400.8125 C152.06259705 401.66608093 152.43769409 402.51966187 152.82415771 403.39910889 C154.3602933 406.89461704 155.89660826 410.39004622 157.43328857 413.88531494 C160.29522406 420.39512144 163.15418896 426.90622723 166.01171875 433.41796875 C166.42139389 434.35147659 166.83106903 435.28498444 167.25315857 436.2467804 C168.84711649 439.8788867 170.44105856 443.51099993 172.03475952 447.14321899 C173.12453758 449.62681625 174.21458412 452.11029552 175.3046875 454.59375 C175.62060349 455.31390793 175.93651947 456.03406586 176.26200867 456.77604675 C178.49284303 461.85746799 180.74248853 466.93037728 183 472 C196.69593841 466.06482091 210.37245354 460.09071365 224 454 C215.98357912 435.0840595 207.68313137 416.29253892 199.41259766 397.48681641 C195.90024225 389.49984312 192.39221793 381.51096835 188.88467407 373.5218811 C188.12917816 371.80113204 187.37362411 370.0804085 186.61801147 368.35971069 C181.23543393 356.10229083 175.86621367 343.83909398 170.50518799 331.57223511 C166.53120542 322.48067684 162.53604238 313.39897835 158.49078369 304.33888245 C157.99882507 303.23705124 157.50686646 302.13522003 157 301 C157.90187546 300.95316071 158.80375092 300.90632141 159.73295593 300.85806274 C184.22002743 299.57872612 208.69197229 298.11523595 233.1619873 296.54486084 C237.68277666 296.25514139 242.20369977 295.96752332 246.72460938 295.6796875 C255.48319928 295.121758 264.24164791 294.56165025 273 294 C269.8090261 287.35170951 263.99290012 282.9497879 258.484375 278.19921875 C255.18250762 275.27633929 251.96782936 272.26482319 248.75 269.25 C242.20718706 263.12112508 235.61859526 257.04694871 229 251 C226.99926338 249.16746981 224.99962374 247.33374439 223 245.5 C220.01244615 242.76092366 217.024547 240.02222783 214.03515625 237.28515625 C208.29667769 232.02991799 202.57082308 226.7613559 196.85571289 221.48071289 C193.24473431 218.14547198 189.62552836 214.81941515 186 211.5 C181.82406148 207.67664732 177.65847228 203.84234195 173.5 200 C167.34851007 194.31670731 161.17721184 188.65530879 155 183 C148.27235135 176.84075995 141.55504247 170.67075416 134.85571289 164.48071289 C131.24473431 161.14547198 127.62552836 157.81941515 124 154.5 C119.27357055 150.17263584 114.56209935 145.8293507 109.85546875 141.48046875 C106.24455418 138.14532809 102.62544354 134.81933749 99 131.5 C94.82406148 127.67664732 90.65847228 123.84234195 86.5 120 C80.34851007 114.31670731 74.17721184 108.65530879 68 103 C62.35387634 97.83090857 56.7097911 92.659863 51.08862305 87.46362305 C48.39451244 84.97347291 45.69741793 82.48656633 43 80 C42.4632666 79.5045166 41.9265332 79.0090332 41.37353516 78.49853516 C39.83477854 77.07969382 38.29289337 75.66434018 36.75 74.25 C35.85796875 73.43015625 34.9659375 72.6103125 34.046875 71.765625 C32.32432623 69.89113862 32.32432623 69.89113862 31 70 Z " fill="#000000" transform="translate(82,0)"/>
</svg>
