<?xml version="1.0" encoding="UTF-8"?>
<svg version="1.1" xmlns="http://www.w3.org/2000/svg" width="512" height="512">
<path d="M0 0 C1.29415326 1.10125117 2.5861822 2.20500938 3.875 3.3125 C4.865 3.9725 5.855 4.6325 6.875 5.3125 C9.33679552 4.50696178 9.33679552 4.50696178 11.9375 3.0625 C24.87047026 -3.19099155 37.25354628 -2.69470618 50.875 1.3125 C62.0355607 5.72718654 70.82485469 13.83094121 75.9375 24.6953125 C78.46825657 31.76034126 79.14871674 37.86522334 79 45.3125 C78.99097656 46.18261719 78.98195313 47.05273438 78.97265625 47.94921875 C78.94934619 50.0704342 78.91348579 52.19150562 78.875 54.3125 C80.61716797 53.82910156 80.61716797 53.82910156 82.39453125 53.3359375 C95.82221557 50.00041688 109.20694067 52.38839846 121.1875 59.0625 C130.66422587 65.23696321 137.15074515 73.20531726 140.43734241 84.19241041 C140.91511781 86.50683763 141.00278393 88.60521091 141.00642776 90.96830845 C141.01026891 91.90507217 141.01411005 92.84183589 141.0180676 93.80698639 C141.01720112 94.83293079 141.01633463 95.85887519 141.01544189 96.91590881 C141.01989858 98.55476544 141.01989858 98.55476544 141.0244453 100.22673029 C141.03314196 103.90124259 141.03464141 107.57572235 141.03613281 111.25024414 C141.04076058 113.88007171 141.04578519 116.50989862 141.05117798 119.13972473 C141.06476091 126.29755842 141.07078731 133.45538651 141.07518864 140.61323094 C141.07795382 145.08926146 141.08219193 149.56528983 141.08669281 154.04131889 C141.09889051 166.45003785 141.10918552 178.85875508 141.1125679 191.2674799 C141.11278747 192.06181477 141.11300703 192.85614964 141.11323325 193.67455527 C141.11345153 194.4707451 141.11366981 195.26693493 141.1138947 196.08725172 C141.11433816 197.7005018 141.11478472 199.31375188 141.11523438 200.92700195 C141.1154558 201.72722204 141.11567723 202.52744212 141.11590537 203.3519113 C141.11984356 216.2848334 141.13726529 229.21769882 141.1605939 242.15059907 C141.18438812 255.44993563 141.19677358 268.74924388 141.19793582 282.04860204 C141.19884861 289.506763 141.20449927 296.96485029 141.22275543 304.4229908 C141.23826643 310.78197762 141.24321322 317.14086807 141.23501733 323.49987025 C141.23114788 326.73668528 141.23353511 329.97326926 141.24607468 333.21006775 C141.30934242 350.57262435 141.09923484 368.14378124 135.125 384.6875 C134.86823486 385.42242676 134.61146973 386.15735352 134.34692383 386.91455078 C125.23380383 412.08046592 106.80707436 430.99777699 82.96508789 442.54833984 C54.34263416 455.9344414 22.52751151 460.53574629 -8.875 460.5625 C-9.59465942 460.56317474 -10.31431885 460.56384949 -11.05578613 460.56454468 C-56.48764093 460.4974417 -99.51237121 447.85698795 -132.3125 415.5 C-139.20945053 408.53352376 -145.31813925 401.19708142 -151.125 393.3125 C-152.22257859 391.83587977 -153.32023917 390.35932049 -154.41796875 388.8828125 C-158.006315 384.04015509 -161.56687118 379.17737954 -165.125 374.3125 C-173.03314738 363.50878836 -181.02610432 352.78123675 -189.16357422 342.14892578 C-193.54545291 336.41389758 -197.8602437 330.63505247 -202.125 324.8125 C-209.09208987 315.30191703 -216.24304881 305.9360784 -223.40234375 296.56982422 C-226.28128352 292.79733597 -229.1392584 289.00999351 -231.97265625 285.203125 C-233.61569125 282.99650813 -235.27084952 280.80104728 -236.93359375 278.609375 C-247.30455627 264.8439352 -253.64201868 253.08058127 -252.125 235.3125 C-249.56711291 222.50853109 -243.54565134 211.39001357 -232.87890625 203.69140625 C-219.50166432 195.10856783 -204.79163244 192.73607524 -189.21875 195.58984375 C-172.89492724 199.4028579 -160.42538974 208.29300248 -150.29833984 221.50878906 C-148.03737693 224.4255379 -145.71692116 227.28465484 -143.375 230.13671875 C-142.57578125 231.11084717 -141.7765625 232.08497559 -140.953125 233.08862305 C-140.04820312 234.18944214 -140.04820312 234.18944214 -139.125 235.3125 C-139.12353344 234.37527477 -139.12206688 233.43804955 -139.12055588 232.47242355 C-139.08391146 209.63565434 -139.02439713 186.79903123 -138.94109726 163.96238327 C-138.9013394 152.9186047 -138.86893037 141.87489704 -138.85400391 130.83105469 C-138.84097055 121.20183026 -138.81396285 111.5727621 -138.77038693 101.94362569 C-138.74781008 96.84814128 -138.73208706 91.75284934 -138.73311615 86.65731049 C-138.73386499 81.85391463 -138.71582448 77.05094363 -138.68383217 72.24765778 C-138.67536543 70.49180542 -138.67356114 68.73590523 -138.67919731 66.9800415 C-138.72260149 51.36988968 -136.37551283 40.01377934 -125.28125 28.37890625 C-115.10407311 18.68139139 -102.60962829 15.94533296 -88.98046875 16.109375 C-83.5986903 16.39291348 -78.39558305 17.21323501 -73.125 18.3125 C-72.77308594 17.59964844 -72.42117187 16.88679688 -72.05859375 16.15234375 C-65.62907624 3.67941552 -56.90516947 -3.82589231 -43.42578125 -8.14453125 C-28.32837905 -11.70741564 -12.4226394 -9.58203586 0 0 Z M-43.0625 25.8125 C-46.38848177 29.84399305 -46.25260093 33.01438965 -46.26303101 38.08674622 C-46.26585229 38.77928 -46.26867357 39.47181378 -46.27158034 40.18533343 C-46.27992888 42.51134359 -46.2812648 44.83730616 -46.28271484 47.16333008 C-46.28738288 48.82889439 -46.29252643 50.49445743 -46.29811096 52.16001892 C-46.3093947 55.74987989 -46.31782755 59.33973255 -46.32423019 62.92960548 C-46.33490562 68.60655947 -46.35514922 74.28345376 -46.37734985 79.96037292 C-46.43928959 96.1044949 -46.49329032 112.24861346 -46.52636719 128.39282227 C-46.54471062 137.30673183 -46.57364272 146.22054151 -46.6143719 155.13437766 C-46.63544585 159.85178007 -46.65089973 164.56905659 -46.65317917 169.28650856 C-46.65532615 173.72461592 -46.67120057 178.16246114 -46.69756889 182.60048866 C-46.70476134 184.22825169 -46.70686312 185.85604649 -46.70346642 187.48382187 C-46.69956588 189.70862516 -46.714044 191.93259363 -46.73300171 194.15730286 C-46.73631186 195.4015141 -46.739622 196.64572535 -46.74303246 197.92763996 C-47.26440443 202.5478523 -48.65538688 205.98066311 -52.125 209.125 C-56.26989408 211.58603086 -60.42157225 211.91660999 -65.125 211.3125 C-69.29905316 209.940435 -71.47420228 208.43891348 -73.69639587 204.59269714 C-76.09196796 198.77384932 -75.54817428 192.45564303 -75.52563477 186.27075195 C-75.53138314 184.8476504 -75.53846832 183.42455371 -75.54678345 182.00146484 C-75.56184971 178.94801121 -75.56767491 175.89473189 -75.56625557 172.84124184 C-75.56421663 168.01297466 -75.58382211 163.18494104 -75.60643005 158.35673523 C-75.6473397 148.98393405 -75.66600007 139.61115157 -75.68260193 130.23828125 C-75.70498386 118.2967866 -75.73846995 106.35534606 -75.78980106 94.41394013 C-75.80972397 89.6138858 -75.81930269 84.81395441 -75.82075322 80.01386034 C-75.82350198 77.03090351 -75.83432798 74.04801473 -75.84726334 71.06508636 C-75.85154526 69.68158028 -75.8524015 68.29805873 -75.84958839 66.91454887 C-75.84618997 65.02675199 -75.85610947 63.13894509 -75.86671448 61.25117493 C-75.86916593 59.66642349 -75.86916593 59.66642349 -75.87166691 58.04965687 C-76.13173188 55.23976486 -76.57771999 53.65247218 -78.125 51.3125 C-84.41934339 46.62522301 -89.42248487 45.50230952 -97.125 46.3125 C-103.12192445 48.10033949 -106.07988337 50.78700575 -109.125 56.3125 C-109.68721446 59.38008631 -109.65969874 62.38556276 -109.62379456 65.49755859 C-109.62917911 66.41316748 -109.63456366 67.32877636 -109.64011139 68.27213097 C-109.6533692 71.33534008 -109.63824329 74.39774599 -109.62329102 77.4609375 C-109.6271145 79.65895964 -109.63273378 81.85697927 -109.64001465 84.05499268 C-109.65196642 88.78585961 -109.65147489 93.51650462 -109.64142036 98.24737549 C-109.62586835 105.72668455 -109.63953137 113.20576533 -109.65745544 120.68505859 C-109.67970676 131.16960434 -109.69020022 141.65410497 -109.68920898 152.13867188 C-109.68915066 152.80360271 -109.68909234 153.46853355 -109.68903225 154.15361381 C-109.6887664 156.84780205 -109.68844912 159.54199029 -109.68806899 162.23617852 C-109.68710264 169.65289568 -109.68843082 177.06961144 -109.69116211 184.48632812 C-109.69152195 185.4825055 -109.69152195 185.4825055 -109.69188906 186.49880767 C-109.69629686 197.57542944 -109.71262365 208.65201204 -109.7363829 219.72860909 C-109.75133171 227.16496411 -109.75103512 234.60111743 -109.73890507 242.03747559 C-109.73419931 246.66157736 -109.74170588 251.28560167 -109.75244904 255.90969086 C-109.75485821 258.0551026 -109.75210916 260.20052722 -109.74384117 262.34592438 C-109.73323357 265.27330183 -109.7409613 268.20008328 -109.75318909 271.12744141 C-109.74561303 271.97744406 -109.73803698 272.82744671 -109.73023134 273.70320702 C-109.77402633 278.64380409 -110.38199014 282.03574783 -113.125 286.3125 C-117.27968846 289.80621529 -120.68711708 291.21709855 -126.125 291.3125 C-132.33365002 289.33536233 -135.44485054 286.30092333 -139.5 281.3125 C-140.06452881 280.63968994 -140.62905762 279.96687988 -141.21069336 279.27368164 C-142.86294002 277.29780631 -144.49671744 275.30814215 -146.125 273.3125 C-146.92292969 272.34183594 -147.72085938 271.37117187 -148.54296875 270.37109375 C-149.97184859 268.62468506 -151.39634174 266.87467799 -152.81640625 265.12109375 C-155.5384416 261.80951436 -158.32642301 258.55939272 -161.125 255.3125 C-164.82357564 251.02011635 -168.47868344 246.70133359 -172.0625 242.3125 C-173.1453125 240.99185547 -173.1453125 240.99185547 -174.25 239.64453125 C-175.34012803 238.28868451 -176.41278331 236.91765445 -177.4375 235.51171875 C-182.30694778 228.9683983 -189.31879062 225.37821258 -197.1875 223.8125 C-204.68248463 222.89122148 -210.24305034 223.7395166 -216.5 228.0625 C-220.42155634 231.30442406 -222.67378956 234.24541129 -223.43359375 239.41015625 C-223.97102158 248.90471453 -218.47058782 255.54376696 -212.75 262.625 C-211.48749966 264.21709991 -210.22714589 265.81090395 -208.96875 267.40625 C-208.00775391 268.62441406 -208.00775391 268.62441406 -207.02734375 269.8671875 C-204.0229267 273.72912811 -201.13462194 277.67320841 -198.25 281.625 C-193.28504438 288.41454532 -188.23836103 295.13401226 -183.125 301.8125 C-177.39992733 309.29161992 -171.7697076 316.83205449 -166.203125 324.4296875 C-161.88642008 330.3098459 -157.47463819 336.11040594 -153.02539062 341.890625 C-148.92581119 347.23053891 -144.91876505 352.63394323 -140.9375 358.0625 C-135.4347141 365.56183854 -129.85322227 372.98359699 -124.125 380.3125 C-123.46371094 381.1684375 -122.80242187 382.024375 -122.12109375 382.90625 C-98.95921987 412.47858191 -70.01413258 426.23218781 -33.125 431.3125 C4.09276378 435.77601819 51.83498117 432.98114118 82.875 409.3125 C86.36550574 406.45804197 89.65420822 403.4668837 92.875 400.3125 C93.50148438 399.72210938 94.12796875 399.13171875 94.7734375 398.5234375 C108.55589722 384.36679335 112.48204459 363.13301354 114.875 344.3125 C114.95604595 343.69848221 115.0370919 343.08446443 115.12059379 342.45184004 C115.83317305 336.65734122 116.02101702 330.96209863 116.01544189 325.12802124 C116.01841302 324.14113426 116.02138414 323.15424728 116.0244453 322.13745463 C116.03307376 318.85123053 116.03463552 315.5650431 116.03613281 312.27880859 C116.04076488 309.91448388 116.04579006 307.55015991 116.05117798 305.18583679 C116.06562268 298.11200457 116.07167838 291.03818019 116.07657349 283.96433586 C116.07915728 280.62799336 116.08294658 277.29165217 116.08669281 273.95531082 C116.09887288 262.85971161 116.10917766 251.76411428 116.1125679 240.66850853 C116.11278747 239.95989124 116.11300703 239.25127395 116.11323325 238.52118341 C116.11345153 237.81094206 116.11366981 237.10070071 116.1138947 236.3689369 C116.11433816 234.9298772 116.11478472 233.49081751 116.11523438 232.05175781 C116.1154558 231.33794534 116.11567723 230.62413287 116.11590537 229.88868971 C116.11985783 218.30917969 116.13733108 206.72973242 116.1605939 195.15024666 C116.18431249 183.24750482 116.19676982 171.3447945 116.19793582 159.44202864 C116.1988518 152.76456857 116.20490543 146.08717931 116.22275543 139.40974045 C116.23920762 133.13390004 116.24140543 126.85821548 116.23261642 120.58236122 C116.23184471 118.27933269 116.23620637 115.97629586 116.24607468 113.67328835 C116.2587556 110.52967629 116.25293819 107.38661952 116.24249268 104.24301147 C116.25054908 103.3318219 116.25860548 102.42063233 116.26690602 101.48183095 C116.22428035 95.99737833 115.48461928 92.16719709 112.875 87.3125 C108.58090184 83.13140442 104.51095701 81.24359556 98.5625 80.9375 C93.77805688 81.07305922 89.56054814 82.16360555 85.875 85.3125 C81.17982264 91.64190714 81.31314599 97.24113078 81.37670898 104.94555664 C81.37119019 106.20490524 81.36567139 107.46425385 81.35998535 108.76176453 C81.34807765 111.4895322 81.34849027 114.21691465 81.35857964 116.9446888 C81.37419858 121.26107141 81.36042311 125.57706174 81.34254456 129.89341736 C81.31178492 138.27553012 81.31022137 146.65752171 81.31219482 155.03968048 C81.31358955 165.71263318 81.30320258 176.38549294 81.2636171 187.05837721 C81.24870996 191.34615377 81.24893316 195.6335803 81.26109493 199.92136204 C81.26467609 201.94693904 81.26148576 203.97237106 81.25531006 205.99794006 C81.24792662 208.46320832 81.25120257 210.92854147 81.26728821 213.39376831 C81.20496151 223.46538157 81.20496151 223.46538157 77.875 228.3125 C74.62793595 231.25515179 71.96147349 232.230502 67.5625 232.5625 C63.58173372 232.29261754 61.32103092 231.23586609 57.875 229.3125 C57.215 229.3125 56.555 229.3125 55.875 229.3125 C52.07030887 220.58325735 52.475859 211.93133037 52.5378418 202.60302734 C52.53864904 200.81012481 52.53805201 199.01722118 52.53616333 197.22431946 C52.53460735 193.377496 52.54194701 189.53083008 52.55600548 185.68403244 C52.57720242 179.59883775 52.5723618 173.51383367 52.5629425 167.42861938 C52.54010453 150.12977317 52.55203348 132.8310423 52.59008789 115.53222656 C52.61089929 105.96744276 52.61022469 96.40289667 52.58655292 86.83811724 C52.57288317 80.79087182 52.58603532 74.74446846 52.61915052 68.69730735 C52.63350256 64.93509606 52.62284708 61.1732618 52.60516739 57.4110775 C52.60199296 55.66921051 52.60906232 53.92728955 52.62723351 52.18551445 C53.1098339 41.9030438 53.1098339 41.9030438 49.06794739 32.84683228 C45.20505772 29.2669603 40.86128136 27.4309215 35.609375 27.22265625 C30.11948485 27.58678162 26.31793851 29.08919167 21.875 32.3125 C18.28180381 36.78430177 17.37524468 39.75434416 17.37620544 45.45423889 C17.37082089 46.15004151 17.36543634 46.84584413 17.35988861 47.56273168 C17.34666907 49.88211027 17.36173374 52.20042069 17.37670898 54.51977539 C17.37288406 56.18740829 17.36726354 57.8550379 17.35998535 59.5226593 C17.3480476 63.10765578 17.34851401 66.69235932 17.35857964 70.27736092 C17.37415119 75.94595491 17.36045553 81.61424842 17.34254456 87.28282166 C17.31173929 98.29037083 17.31022319 109.29782798 17.31219482 120.30541229 C17.31358819 134.32047484 17.30326618 148.33546685 17.2636171 162.35047716 C17.24867551 167.98576509 17.24895919 173.62078681 17.26109493 179.25607884 C17.26580247 182.76025096 17.25829156 186.26432096 17.24755096 189.76847649 C17.24514298 191.39345244 17.24788669 193.01844542 17.25615883 194.6434021 C17.26677683 196.86178641 17.25903179 199.07938576 17.24681091 201.29774475 C17.24739722 202.53898133 17.24798353 203.78021791 17.24858761 205.05906773 C16.84370401 208.58504484 15.83687558 210.40763509 13.875 213.3125 C13.875 213.9725 13.875 214.6325 13.875 215.3125 C8.49947998 217.74266276 3.698634 217.98807575 -2.125 217.3125 C-6.86601232 215.19597664 -8.59054509 213.01005876 -10.51980877 208.24612069 C-11.50650694 205.09356345 -11.50171627 202.11170566 -11.50354004 198.82272339 C-11.50807017 198.10156503 -11.5126003 197.38040667 -11.5172677 196.63739502 C-11.52882803 194.23838179 -11.51927099 191.839933 -11.50976562 189.44091797 C-11.51387358 187.71402631 -11.51933577 185.98713741 -11.52604675 184.26025391 C-11.53774952 180.5503693 -11.54026413 176.84063337 -11.53569031 173.13073349 C-11.52887194 167.26466041 -11.54476249 161.39878255 -11.56408691 155.53274536 C-11.60512909 142.02524328 -11.61649184 128.51774676 -11.62761688 115.01019287 C-11.63812288 102.62276134 -11.65487881 90.23542375 -11.69571257 77.84805024 C-11.71407819 72.01625396 -11.71795808 66.18468139 -11.71077728 60.35286307 C-11.70925666 56.72740743 -11.72003105 53.10206401 -11.73415565 49.47663879 C-11.73816171 47.79522754 -11.73702749 46.11379502 -11.73038292 44.43239212 C-11.7220098 42.13742296 -11.73198122 39.84323157 -11.74645996 37.54830933 C-11.74717247 36.2641255 -11.74788498 34.97994167 -11.74861908 33.65684319 C-12.15295494 30.0641056 -12.98568571 28.19069944 -15.125 25.3125 C-24.02689081 18.43376619 -34.60978886 18.61870328 -43.0625 25.8125 Z " fill="#000000" transform="translate(280.125,29.6875)"/>
</svg>
