<?xml version="1.0" encoding="UTF-8"?>
<svg version="1.1" xmlns="http://www.w3.org/2000/svg" width="512" height="512">
<path d="M0 0 C0.76773743 0.00087616 1.53547485 0.00175232 2.32647705 0.00265503 C29.05070828 0.10287697 53.61675014 6.46341899 77.0625 19.375 C78.11695313 19.93960938 79.17140625 20.50421875 80.2578125 21.0859375 C92.02335647 27.62917736 102.29282216 36.16547232 112.0625 45.375 C112.77535156 46.02339844 113.48820312 46.67179687 114.22265625 47.33984375 C126.27302573 58.73411326 135.60078103 72.64792308 143.0625 87.375 C143.38444336 88.00647949 143.70638672 88.63795898 144.03808594 89.28857422 C163.26118904 127.46915925 165.39720302 171.96774252 152.5 212.4375 C146.49679077 230.12921847 137.65564542 245.7770548 126.0625 260.375 C127.50711662 263.68664539 129.30248029 265.85851073 131.8581543 268.39770508 C132.64894379 269.18835358 133.43973328 269.97900208 134.25448608 270.79360962 C135.12312286 271.65191376 135.99175964 272.5102179 136.88671875 273.39453125 C138.28955938 274.79288893 139.69239975 276.19124687 141.0952301 277.58961487 C142.60202422 279.08967213 144.11127529 280.58721697 145.62124634 282.08407593 C148.76949847 285.20526715 151.91009373 288.33408691 155.04956055 291.46411133 C161.71464783 298.10700466 168.38813897 304.74142637 175.0625 311.375 C182.26806171 318.53652812 189.47217493 325.69947676 196.6665659 332.87222958 C199.78759494 335.98329408 202.91343619 339.08941639 206.04304504 342.19184875 C207.52018192 343.65765915 208.99501507 345.12574086 210.46884155 346.59487915 C212.26558654 348.38588241 214.06593667 350.17327901 215.87051392 351.95639038 C216.66130341 352.74703888 217.4520929 353.53768738 218.2668457 354.35229492 C218.9555928 355.0366008 219.6443399 355.72090668 220.35395813 356.4259491 C224.48226177 361.13538823 224.49338154 365.37908578 224.375 371.4609375 C223.80647844 376.76240101 221.28384216 379.21472495 217.5625 382.75 C212.50471514 385.09825726 207.54564207 385.34597307 202.0625 384.375 C196.07475559 381.00723127 191.55896148 376.13882206 186.75244141 371.29199219 C185.83472961 370.37457245 184.91701782 369.45715271 183.97149658 368.51193237 C181.46743468 366.00844201 178.96956794 363.49885319 176.47280169 360.98808956 C173.8578918 358.36063913 171.23728038 355.73888778 168.61727905 353.11651611 C163.66230202 348.15533406 158.71244342 343.18907791 153.76442182 338.2209599 C148.12869459 332.56284319 142.48725684 326.91043483 136.84534192 321.25848913 C125.24471371 309.63698108 113.6512463 298.00835677 102.0625 286.375 C98.49825339 287.74679867 95.69078874 289.21527009 92.625 291.5 C74.82848258 304.15937837 55.20053637 312.231286 34.0625 317.375 C33.35818848 317.55434082 32.65387695 317.73368164 31.92822266 317.91845703 C-6.50623834 327.35603377 -49.67420513 318.07550851 -83.296875 298.41015625 C-86.26072337 296.49306385 -89.10412471 294.47979307 -91.9375 292.375 C-92.46585449 291.99182617 -92.99420898 291.60865234 -93.53857422 291.21386719 C-114.62099534 275.8488169 -131.05147611 256.54049897 -142.9375 233.375 C-143.25557617 232.76333984 -143.57365234 232.15167969 -143.90136719 231.52148438 C-160.10744596 199.98990792 -166.01381732 158.95960174 -156.9375 124.375 C-156.73882324 123.59237793 -156.54014648 122.80975586 -156.33544922 122.00341797 C-145.03293069 78.52893658 -117.55390018 43.74814563 -79.13037109 20.80981445 C-54.86639717 6.79354301 -27.92150264 -0.0781787 0 0 Z M-81.9375 63.375 C-83.18273437 64.43847656 -83.18273437 64.43847656 -84.453125 65.5234375 C-107.62448358 85.78060681 -123.10796142 113.66722636 -126.9375 144.375 C-127.25361337 149.37825093 -127.31927271 154.36258048 -127.3125 159.375 C-127.31195618 160.05653137 -127.31141235 160.73806274 -127.31085205 161.44024658 C-127.26923267 172.81765416 -126.25801025 183.45421075 -122.9375 194.375 C-122.72851074 195.08720703 -122.51952148 195.79941406 -122.30419922 196.53320312 C-116.02388291 217.43936469 -104.84472058 234.55124145 -89.9375 250.375 C-89.33808594 251.03886719 -88.73867187 251.70273437 -88.12109375 252.38671875 C-72.59744704 268.91621729 -52.39073308 278.24306134 -30.9375 284.375 C-30.26702637 284.5699707 -29.59655273 284.76494141 -28.90576172 284.96582031 C1.31327398 293.32138768 35.34244134 286.35773007 62.375 271.625 C86.76415928 257.77908476 105.82433212 237.05775888 117.0625 211.375 C117.34464355 210.73481934 117.62678711 210.09463867 117.91748047 209.43505859 C130.6112244 179.97091166 131.26711132 145.16962627 119.61987305 115.24755859 C112.51666605 98.0914159 102.78191508 83.90124364 90.0625 70.375 C89.5365625 69.78460938 89.010625 69.19421875 88.46875 68.5859375 C65.99188294 44.38890205 33.04564721 34.29147542 1.0625 32.375 C-29.14431612 32.375 -59.19367626 43.60771695 -81.9375 63.375 Z " fill="#000000" transform="translate(223.9375,63.625)"/>
<path d="M0 0 C1.17205994 -0.0071553 2.34411987 -0.01431061 3.55169678 -0.02168274 C4.84418335 -0.02437164 6.13666992 -0.02706055 7.46832275 -0.02983093 C8.83817722 -0.03609491 10.20802997 -0.04274165 11.57788086 -0.04974365 C15.30531322 -0.06716084 19.03273275 -0.07770763 22.76019573 -0.08594918 C25.08897563 -0.09109846 27.41775154 -0.09717426 29.74652863 -0.10346031 C37.03262116 -0.12251552 44.31870354 -0.13674522 51.6048162 -0.14507228 C60.0154103 -0.15484304 68.42574111 -0.18115674 76.83624244 -0.22157317 C83.33653733 -0.25173799 89.83675677 -0.26654154 96.33712029 -0.26985329 C100.21961405 -0.27220363 104.10182663 -0.28116127 107.9842453 -0.30631447 C111.63852152 -0.32960652 115.29233168 -0.3338242 118.9466629 -0.32355309 C120.92316173 -0.32282216 122.89963694 -0.3419061 124.8760376 -0.36161804 C135.66794103 -0.29829131 135.66794103 -0.29829131 140.48492432 4.14717102 C144.11326095 7.96647274 144.7949289 11.02996108 144.98492432 16.14717102 C144.7949289 21.26438096 144.11326095 24.3278693 140.48492432 28.14717102 C134.73201723 33.43983337 128.55130035 32.71228694 121.04742432 32.66474915 C119.67697406 32.67017402 118.30652963 32.67729873 116.93609619 32.68598938 C113.22527696 32.70418269 109.51490391 32.69717204 105.80407715 32.68447304 C101.91512883 32.67432451 98.02621794 32.68374385 94.13726807 32.6900177 C87.6072506 32.69728874 81.07741427 32.68772078 74.54742432 32.6686554 C67.00487247 32.64688756 59.46275316 32.65393932 51.92021179 32.67596102 C45.43678595 32.69413061 38.95349008 32.69666576 32.470047 32.68620634 C28.60107334 32.67997993 24.73230278 32.67911213 20.86334229 32.69235229 C17.2253603 32.70393306 13.58793432 32.69584528 9.95001221 32.67277527 C7.98314166 32.66498949 6.01622393 32.67682511 4.04937744 32.68928528 C-6.74239491 32.58591581 -6.74239491 32.58591581 -11.51507568 28.14717102 C-14.98416636 23.92800669 -16.42222471 20.62537855 -16.51507568 15.14717102 C-15.63979184 10.25736415 -14.30396065 6.41329651 -10.45257568 3.14717102 C-6.49424245 0.45213563 -4.74123048 0.01981044 0 0 Z " fill="#000000" transform="translate(159.51507568359375,207.8528289794922)"/>
</svg>
