<?xml version="1.0" encoding="UTF-8"?>
<svg version="1.1" xmlns="http://www.w3.org/2000/svg" width="512" height="512">
<path d="M0 0 C1.1088707 -0.01058945 1.1088707 -0.01058945 2.24014282 -0.02139282 C32.97641168 -0.24840581 32.97641168 -0.24840581 45.9765625 3.203125 C47.16427246 3.50911621 47.16427246 3.50911621 48.37597656 3.82128906 C74.61487163 10.73579651 97.8146255 22.75872863 117.80078125 41.21484375 C119.54657624 42.81019321 121.30944352 44.30248232 123.1640625 45.765625 C144.63550246 64.3742063 158.87961802 93.1600313 165.9765625 120.203125 C166.18829102 120.99654297 166.40001953 121.78996094 166.61816406 122.60742188 C176.69553923 162.24616225 169.39680552 206.94377186 148.89257812 242.05957031 C146.73868129 245.55318302 144.40624515 248.89733037 141.9765625 252.203125 C141.37199219 253.02941406 140.76742188 253.85570312 140.14453125 254.70703125 C138.77302897 256.553902 137.38735053 258.38620102 135.9765625 260.203125 C137.42117912 263.51477039 139.21654279 265.68663573 141.7722168 268.22583008 C142.56300629 269.01647858 143.35379578 269.80712708 144.16854858 270.62173462 C145.03718536 271.48003876 145.90582214 272.3383429 146.80078125 273.22265625 C148.20362188 274.62101393 149.60646225 276.01937187 151.0092926 277.41773987 C152.51608672 278.91779713 154.02533779 280.41534197 155.53530884 281.91220093 C158.68356097 285.03339215 161.82415623 288.16221191 164.96362305 291.29223633 C171.62871033 297.93512966 178.30220147 304.56955137 184.9765625 311.203125 C192.18212421 318.36465312 199.38623743 325.52760176 206.5806284 332.70035458 C209.70165744 335.81141908 212.82749869 338.91754139 215.95710754 342.01997375 C217.43424442 343.48578415 218.90907757 344.95386586 220.38290405 346.42300415 C222.17964904 348.21400741 223.97999917 350.00140401 225.78457642 351.78451538 C226.57536591 352.57516388 227.3661554 353.36581238 228.1809082 354.18041992 C228.8696553 354.8647258 229.5584024 355.54903168 230.26802063 356.2540741 C234.39632427 360.96351323 234.40744404 365.20721078 234.2890625 371.2890625 C233.72054094 376.59052601 231.19790466 379.04284995 227.4765625 382.578125 C222.41877764 384.92638226 217.45970457 385.17409807 211.9765625 384.203125 C205.98881809 380.83535627 201.47302398 375.96694706 196.66650391 371.12011719 C195.74879211 370.20269745 194.83108032 369.28527771 193.88555908 368.34005737 C191.38149718 365.83656701 188.88363044 363.32697819 186.38686419 360.81621456 C183.7719543 358.18876413 181.15134288 355.56701278 178.53134155 352.94464111 C173.57636452 347.98345906 168.62650592 343.01720291 163.67848432 338.0490849 C158.04275709 332.39096819 152.40131934 326.73855983 146.75940442 321.08661413 C135.15877621 309.46510608 123.5653088 297.83648177 111.9765625 286.203125 C108.83552707 287.71616665 106.02598895 289.49187697 103.15722656 291.47729492 C84.2781081 304.49678108 63.56761844 313.82791106 40.9765625 318.203125 C40.06737061 318.37972656 39.15817871 318.55632812 38.22143555 318.73828125 C28.9752082 320.35296506 19.89599331 320.60460272 10.5390625 320.578125 C9.74665161 320.5769165 8.95424072 320.57570801 8.13781738 320.57446289 C-4.93102207 320.52053823 -17.36403952 319.69252913 -30.0234375 316.203125 C-31.45937256 315.80843018 -31.45937256 315.80843018 -32.92431641 315.40576172 C-57.59752772 308.36822106 -79.18686065 296.61769335 -97.953125 279.12109375 C-99.65925404 277.54051005 -101.3862674 276.07838862 -103.2109375 274.640625 C-129.94973577 251.46699984 -146.55667281 212.82515983 -150.0234375 178.203125 C-150.13351888 175.52014147 -150.20942852 172.86235133 -150.2265625 170.1796875 C-150.23362213 169.44044037 -150.24068176 168.70119324 -150.24795532 167.93954468 C-150.47496831 137.20327582 -150.47496831 137.20327582 -147.0234375 124.203125 C-146.71744629 123.01541504 -146.71744629 123.01541504 -146.40527344 121.80371094 C-139.49076599 95.56481587 -127.46783387 72.365062 -109.01171875 52.37890625 C-107.41636929 50.63311126 -105.92408018 48.87024398 -104.4609375 47.015625 C-80.00630178 18.79873763 -36.94917535 0.23599172 0 0 Z M-83.20507812 72.89672852 C-98.46296913 88.7743326 -108.08572493 108.14904605 -114.0234375 129.203125 C-114.36503906 130.40453125 -114.70664063 131.6059375 -115.05859375 132.84375 C-122.38748916 164.34095631 -116.00659393 199.01596588 -99.3828125 226.5078125 C-80.52394297 256.50491058 -51.3608468 277.2090726 -16.890625 285.203125 C16.29414564 292.27694398 50.99921209 285.7508876 79.5625 267.5 C107.01213935 249.32203584 125.12296954 222.59640027 133.9765625 191.203125 C134.31816406 190.00171875 134.65976562 188.8003125 135.01171875 187.5625 C142.34061416 156.06529369 135.95971893 121.39028412 119.3359375 93.8984375 C100.35103852 63.70087578 71.50365058 43.78591398 37.1015625 35.203125 C-7.54095891 25.36663723 -51.5064049 41.01367317 -83.20507812 72.89672852 Z " fill="#000000" transform="translate(214.0234375,63.796875)"/>
<path d="M0 0 C4.64033987 2.15444351 8.03598049 5.2220809 10 10 C10.54851096 14.13732054 10.46541986 18.23134214 10.390625 22.3984375 C10.38496521 23.58853424 10.37930542 24.77863098 10.37347412 26.00479126 C10.35113451 29.79527486 10.30093963 33.58480345 10.25 37.375 C10.22993201 39.94920507 10.21168177 42.523425 10.1953125 45.09765625 C10.15127745 51.39876178 10.08438805 57.69931265 10 64 C10.66319244 63.99111755 11.32638489 63.98223511 12.00967407 63.9730835 C18.92026134 63.88450044 25.83068696 63.82421985 32.74169922 63.78027344 C35.31989088 63.76017437 37.89803704 63.73289059 40.47607422 63.69824219 C44.18468461 63.64965153 47.89269156 63.62701342 51.6015625 63.609375 C52.75177887 63.58872986 53.90199524 63.56808472 55.08706665 63.54681396 C61.38852193 63.54505226 65.23604813 63.72116563 70 68 C73.62833663 71.81930172 74.31000458 74.88279006 74.5 80 C74.31000458 85.11720994 73.62833663 88.18069828 70 92 C64.37931362 97.04832683 58.89755008 96.5215801 51.6015625 96.390625 C50.41146576 96.38496521 49.22136902 96.37930542 47.99520874 96.37347412 C44.20472514 96.35113451 40.41519655 96.30093963 36.625 96.25 C34.05079493 96.22993201 31.476575 96.21168177 28.90234375 96.1953125 C22.60123822 96.15127745 16.30068735 96.08438805 10 96 C10.00888245 96.66319244 10.01776489 97.32638489 10.0269165 98.00967407 C10.11549956 104.92026134 10.17578015 111.83068696 10.21972656 118.74169922 C10.23982563 121.31989088 10.26710941 123.89803704 10.30175781 126.47607422 C10.35034847 130.18468461 10.37298658 133.89269156 10.390625 137.6015625 C10.41127014 138.75177887 10.43191528 139.90199524 10.45318604 141.08706665 C10.45494774 147.38852193 10.27883437 151.23604813 6 156 C2.18069828 159.62833663 -0.88279006 160.31000458 -6 160.5 C-11.11720994 160.31000458 -14.18069828 159.62833663 -18 156 C-23.04832683 150.37931362 -22.5215801 144.89755008 -22.390625 137.6015625 C-22.38496521 136.41146576 -22.37930542 135.22136902 -22.37347412 133.99520874 C-22.35113451 130.20472514 -22.30093963 126.41519655 -22.25 122.625 C-22.22993201 120.05079493 -22.21168177 117.476575 -22.1953125 114.90234375 C-22.15127745 108.60123822 -22.08438805 102.30068735 -22 96 C-22.99478867 96.01332367 -22.99478867 96.01332367 -24.00967407 96.0269165 C-30.92026134 96.11549956 -37.83068696 96.17578015 -44.74169922 96.21972656 C-47.31989088 96.23982563 -49.89803704 96.26710941 -52.47607422 96.30175781 C-56.18468461 96.35034847 -59.89269156 96.37298658 -63.6015625 96.390625 C-65.32688705 96.42159271 -65.32688705 96.42159271 -67.08706665 96.45318604 C-73.38852193 96.45494774 -77.23604813 96.27883437 -82 92 C-85.62833663 88.18069828 -86.31000458 85.11720994 -86.5 80 C-86.31000458 74.88279006 -85.62833663 71.81930172 -82 68 C-76.37931362 62.95167317 -70.89755008 63.4784199 -63.6015625 63.609375 C-62.41146576 63.61503479 -61.22136902 63.62069458 -59.99520874 63.62652588 C-56.20472514 63.64886549 -52.41519655 63.69906037 -48.625 63.75 C-46.05079493 63.77006799 -43.476575 63.78831823 -40.90234375 63.8046875 C-34.60123822 63.84872255 -28.30068735 63.91561195 -22 64 C-22.00888245 63.33680756 -22.01776489 62.67361511 -22.0269165 61.99032593 C-22.11549956 55.07973866 -22.17578015 48.16931304 -22.21972656 41.25830078 C-22.23982563 38.68010912 -22.26710941 36.10196296 -22.30175781 33.52392578 C-22.35034847 29.81531539 -22.37298658 26.10730844 -22.390625 22.3984375 C-22.41127014 21.24822113 -22.43191528 20.09800476 -22.45318604 18.91293335 C-22.45494774 12.61147807 -22.27883437 8.76395187 -18 4 C-12.72867143 -1.00776214 -6.89190982 -0.92775709 0 0 Z " fill="#000000" transform="translate(230,144)"/>
</svg>
